<svg
      xmlns="http://www.w3.org/2000/svg"
      width="115"
      height="95"
      version="1.1"
    >
      <defs>
        <marker
          markerHeight="3"
          markerUnits="strokeWidth"
          markerWidth="4"
          orient="auto"
          refX="0"
          refY="5"
          viewBox="0 0 10 10"
        >
          <path d="M0 0l10 5-10 5z"></path>
        </marker>
        <marker
          markerHeight="3"
          markerUnits="strokeWidth"
          markerWidth="4"
          orient="auto"
          refX="10"
          refY="5"
          viewBox="0 0 10 10"
        >
          <path d="M10 0L0 5l10 5z"></path>
        </marker>
      </defs>
      <path
        fill="#fafafa"
        fillRule="evenodd"
        strokeLinecap="round"
        strokeLinejoin="round"
        d="M45.502 0c-2.333 0-3.775 1.314-4.395 2.553-.366.732-.3.98-.357 1.447H11.5a1 1 0 00-1 1l.004 18.83v4.748c-.468.057-.715-.009-1.447.358-1.239.619-2.553 2.06-2.553 4.394 0 2.037 1.033 3.276 2.111 4-1.078.724-2.111 1.963-2.111 4s1.033 3.276 2.111 4c-1.078.724-2.111 1.963-2.111 4s1.033 3.276 2.111 4c-1.078.724-2.111 1.963-2.111 4 0 2.333 1.314 3.775 2.553 4.395.732.366.98.3 1.447.357v4.748L10.5 85.662a1 1 0 001 1h91.994a1 1 0 001-1l.002-18.832v-4.748c.468-.057.715.009 1.447-.357 1.239-.62 2.553-2.062 2.553-4.395 0-2.037-1.033-3.276-2.111-4 1.078-.724 2.111-1.963 2.111-4s-1.033-3.276-2.111-4c1.078-.724 2.111-1.963 2.111-4s-1.033-3.276-2.111-4c1.078-.724 2.111-1.963 2.111-4 0-2.333-1.314-3.775-2.553-4.394-.732-.367-.98-.3-1.447-.358V23.83L104.494 5a1 1 0 00-1-1H74.254c-.057-.468.009-.715-.358-1.447C73.277 1.314 71.836 0 69.502 0c-2.037 0-3.276 1.033-4 2.111-.724-1.078-1.963-2.111-4-2.111s-3.276 1.033-4 2.111C56.778 1.033 55.539 0 53.502 0s-3.276 1.033-4 2.111C48.778 1.033 47.539 0 45.502 0zm0 2c1.667 0 2.225.686 2.605 1.447.381.762.395 1.553.395 1.553a1 1 0 002 0s.014-.791.394-1.553c.381-.761.94-1.447 2.606-1.447 1.667 0 2.225.686 2.605 1.447.381.762.395 1.553.395 1.553a1 1 0 002 0s.014-.791.394-1.553c.381-.761.94-1.447 2.606-1.447 1.667 0 2.225.686 2.605 1.447.381.762.395 1.553.395 1.553a1 1 0 002 0s.014-.791.394-1.553c.381-.761.94-1.447 2.606-1.447 1.667 0 2.225.686 2.605 1.447.381.762.395 1.553.395 1.553a1 1 0 001 1h28.992l.002 17.83v5.5a1 1 0 001 1s.791.014 1.553.395c.761.38 1.447.938 1.447 2.605s-.686 2.225-1.447 2.606c-.762.38-1.553.394-1.553.394a1 1 0 000 2s.791.014 1.553.395c.761.38 1.447.938 1.447 2.605s-.686 2.225-1.447 2.606a4.045 4.045 0 01-1.553.394 1 1 0 000 2s.791.014 1.553.395c.761.38 1.447.938 1.447 2.605s-.686 2.225-1.447 2.606a4.045 4.045 0 01-1.553.394 1 1 0 000 2s.791.014 1.553.395c.761.38 1.447.938 1.447 2.605s-.686 2.225-1.447 2.606a4.045 4.045 0 01-1.553.394 1 1 0 00-1 1v5.5l-.002 17.832H12.5l.004-17.832v-5.5a1 1 0 00-1-1s-.791-.014-1.553-.394c-.761-.381-1.447-.94-1.447-2.606 0-1.667.686-2.225 1.447-2.605.762-.381 1.553-.395 1.553-.395a1 1 0 000-2s-.791-.014-1.553-.394c-.761-.381-1.447-.94-1.447-2.606 0-1.667.686-2.225 1.447-2.605.762-.381 1.553-.395 1.553-.395a1 1 0 000-2s-.791-.014-1.553-.394c-.761-.381-1.447-.94-1.447-2.606 0-1.667.686-2.225 1.447-2.605.762-.381 1.553-.395 1.553-.395a1 1 0 000-2s-.791-.014-1.553-.394c-.761-.381-1.447-.94-1.447-2.606 0-1.667.686-2.225 1.447-2.605.762-.381 1.553-.395 1.553-.395a1 1 0 001-1v-5.5L12.5 6h29.002a1 1 0 001-1s.014-.791.394-1.553c.381-.761.94-1.447 2.606-1.447z"
        color="#000"
      ></path>
      <path
        fill="#d1ff82"
        stroke="none"
        strokeWidth="1"
        d="M8.202 85.66a3.3 3.296 0 106.598.002 3.3 3.296 0 00-6.598-.002"
      ></path>
      <path
        fill="#d1ff82"
        stroke="none"
        strokeWidth="1"
        d="M100.195 85.66a3.3 3.296 0 106.598.002 3.3 3.296 0 00-6.598-.002"
      ></path>
      <path
        fill="#8cd5ff"
        stroke="none"
        strokeWidth="1"
        d="M8.202 4.998A3.3 3.296 0 1014.8 5a3.3 3.296 0 00-6.598-.002"
      ></path>
      <path
        fill="#ff8c82"
        stroke="none"
        strokeWidth="1"
        d="M100.195 4.998a3.3 3.296 0 106.598.002 3.3 3.296 0 00-6.598-.002"
      ></path>
    </svg>