<svg
      xmlns="http://www.w3.org/2000/svg"
      width="115"
      height="95"
      version="1.1"
    >
      <defs>
        <marker
          markerHeight="3"
          markerUnits="strokeWidth"
          markerWidth="4"
          orient="auto"
          refX="0"
          refY="5"
          viewBox="0 0 10 10"
        >
          <path d="M0 0l10 5-10 5z"></path>
        </marker>
        <marker
          markerHeight="3"
          markerUnits="strokeWidth"
          markerWidth="4"
          orient="auto"
          refX="10"
          refY="5"
          viewBox="0 0 10 10"
        >
          <path d="M10 0L0 5l10 5z"></path>
        </marker>
      </defs>
      <g
        stroke="#fafafa"
        strokeLinecap="round"
        strokeLinejoin="round"
        strokeWidth="1.899"
        transform="matrix(1.05307 0 0 1.05302 7.5 3.473)"
      >
        <path
          fill="#fafafa"
          stroke="none"
          strokeWidth="2"
          d="M4.482 2.248a1 1 0 00-.605.467 1 1 0 00.365 1.365l12.248 7.065a1 1 0 001.1-.065l2.678-2.006-1.069 8.967a1 1 0 001.594.92l7.232-5.41-1.072 8.967a1 1 0 001.594.918l7.23-5.41-1.07 8.968a1 1 0 001.594.918l4.02-3.008L51.5 31.36v13.998a1 1 0 00.605.92l3.079 1.319-8.3 3.556a1 1 0 000 1.838l8.3 3.557-8.3 3.557a1 1 0 000 1.837l8.3 3.557-8.3 3.555a1 1 0 000 1.84l4.62 1.976-.004 13.916a1 1 0 001 1 1 1 0 001-1l.004-14.574a1 1 0 00-.608-.92l-3.078-1.318 8.3-3.557a1 1 0 000-1.838l-8.3-3.557 8.3-3.554a1 1 0 000-1.84l-8.3-3.555 8.3-3.556a1 1 0 000-1.84L53.5 44.697V31.36l11.182-6.455 4.017 3.008a1 1 0 001.594-.92l-1.068-8.963 7.228 5.409a1 1 0 001.594-.92l-1.07-8.967 7.23 5.408a1 1 0 001.592-.918L84.73 9.074l2.68 2.006a1 1 0 001.098.065l12.248-7.065a1 1 0 00.369-1.365 1 1 0 00-1.37-.367L88.08 9.084l-4.02-3.01a1 1 0 00-1.591.92l1.068 8.967-7.23-5.41a1 1 0 00-1.592.92l1.07 8.968-7.232-5.41a1 1 0 00-1.592.918l1.07 8.965-2.681-2.006a1 1 0 00-1.098-.062L52.5 29.627l-11.752-6.783a1 1 0 00-1.1.062l-2.677 2.008 1.068-8.967a1 1 0 00-1.592-.918l-7.23 5.409 1.068-8.967a1 1 0 00-1.592-.918l-7.23 5.408 1.068-8.967a1 1 0 00-1.593-.918L16.92 9.082 5.242 2.348a1 1 0 00-.76-.1z"
          color="#000"
          transform="matrix(.9496 0 0 .94965 -2.374 -.924)"
        ></path>
      </g>
      <path
        fill="#8cd5ff"
        fillRule="evenodd"
        stroke="none"
        strokeWidth="1"
        d="M12.957 5.713a3.215 3.215 0 11-6.43.002 3.215 3.215 0 016.43-.002"
      ></path>
      <path
        fill="#fafafa"
        fillRule="evenodd"
        stroke="none"
        strokeWidth="1"
        d="M60.715 33.28a3.215 3.215 0 11-6.43.002 3.215 3.215 0 016.43-.002"
      ></path>
      <path
        fill="#ff8c82"
        fillRule="evenodd"
        stroke="none"
        strokeWidth="1"
        d="M108.472 5.713a3.215 3.215 0 11-6.43.002 3.215 3.215 0 016.43-.002"
      ></path>
      <path
        fill="#d1ff82"
        fillRule="evenodd"
        stroke="none"
        strokeWidth="1"
        d="M60.714 89.284a3.215 3.215 0 11-6.43.002 3.215 3.215 0 016.43-.002"
      ></path>
    </svg>