<svg
      xmlns="http://www.w3.org/2000/svg"
      width="115"
      height="95"
      version="1.1"
    >
      <path
        fill="#fafafa"
        fillRule="evenodd"
        strokeLinecap="round"
        strokeLinejoin="round"
        d="M9.482 4.748a1 1 0 00-.607.467 1 1 0 00.367 1.365L14.5 9.61l4.764 2.75a1 1 0 001.365-.366s.409-.68 1.119-1.148c.71-.47 1.537-.783 2.98.05 1.444.834 1.583 1.705 1.532 2.555-.051.85-.434 1.543-.434 1.543a1 1 0 001.733 1s.406-.68 1.117-1.148c.71-.47 1.537-.783 2.98.05 1.444.834 1.584 1.705 1.533 2.555a4.046 4.046 0 01-.435 1.543l1.732 1s.407-.68 1.118-1.148c.71-.47 1.537-.783 2.98.05 1.443.834 1.584 1.705 1.533 2.555a4.046 4.046 0 01-.435 1.543l1.732 1s.407-.68 1.117-1.148c.71-.47 1.537-.783 2.98.05 1.444.834 1.585 1.705 1.534 2.555a4.046 4.046 0 01-.436 1.543 1 1 0 00.368 1.365l4.763 2.75 4.76 2.75.004 5.924v5.5a1 1 0 001 1s.791.014 1.553.395c.761.38 1.447.939 1.447 2.605 0 1.667-.686 2.225-1.447 2.606-.762.38-1.553.394-1.553.394v2s.791.014 1.553.395c.761.38 1.447.939 1.447 2.605 0 1.667-.686 2.225-1.447 2.606-.762.38-1.553.394-1.553.394a1 1 0 000 2s.791.014 1.553.395c.761.38 1.447.939 1.447 2.605 0 1.667-.686 2.225-1.447 2.606-.762.38-1.553.394-1.553.394v2s.791.014 1.553.395c.761.38 1.447.939 1.447 2.605 0 1.667-.686 2.225-1.447 2.606-.762.38-1.553.394-1.553.394a1 1 0 00-1 1v5.5l-.004 6.502a1 1 0 00.998 1 1 1 0 001.002-.998l.004-6.504v-4.748c.468-.057.713.009 1.445-.357 1.239-.62 2.555-2.061 2.555-4.395 0-2.037-1.035-3.276-2.113-4 1.078-.724 2.113-1.962 2.113-4 0-2.037-1.035-3.276-2.113-4 1.078-.724 2.113-1.962 2.113-4 0-2.037-1.035-3.276-2.113-4 1.078-.724 2.113-1.962 2.113-4 0-2.333-1.316-3.775-2.555-4.394-.732-.366-.977-.3-1.445-.358v-4.748L58.5 33.86l4.76-2.75 4.763-2.75a1 1 0 00.368-1.365s-.385-.693-.436-1.543c-.05-.85.09-1.721 1.533-2.555 1.444-.833 2.27-.52 2.98-.05a4.031 4.031 0 011.118 1.148 1 1 0 101.732-1s-.384-.693-.435-1.543c-.051-.85.09-1.721 1.533-2.555 1.443-.833 2.27-.52 2.98-.05a4.031 4.031 0 011.118 1.148l1.732-1s-.384-.693-.435-1.543c-.051-.85.09-1.721 1.533-2.555 1.443-.833 2.27-.52 2.98-.05.71.469 1.117 1.148 1.117 1.148a1 1 0 101.733-1s-.383-.693-.434-1.543c-.05-.85.088-1.721 1.531-2.555 1.444-.833 2.27-.52 2.981-.05.71.469 1.12 1.148 1.12 1.148a1 1 0 001.364.365l4.764-2.75 5.258-3.029a1 1 0 00.367-1.365 1 1 0 00-1.367-.367L99.5 7.877l-4.113 2.375c-.284-.377-.35-.623-1.033-1.074-1.156-.763-3.062-1.18-5.083-.014-1.764 1.019-2.32 2.532-2.408 3.828-1.166-.572-2.755-.847-4.52.172-1.763 1.019-2.32 2.532-2.407 3.828-1.167-.572-2.756-.847-4.52.172-1.764 1.019-2.32 2.532-2.408 3.828-1.166-.572-2.755-.847-4.52.172-2.02 1.167-2.612 3.026-2.529 4.408.049.817.228.998.412 1.432l-4.111 2.373-4.76 2.75-4.76-2.75-4.111-2.373c.184-.434.363-.615.412-1.432.083-1.382-.509-3.241-2.53-4.408-1.764-1.019-3.353-.744-4.519-.172-.087-1.296-.644-2.81-2.408-3.828-1.764-1.019-3.353-.744-4.52-.172-.087-1.296-.644-2.81-2.408-3.828-1.764-1.019-3.353-.744-4.52-.172-.087-1.296-.643-2.81-2.407-3.828-2.021-1.167-3.927-.75-5.083.014-.683.45-.75.697-1.033 1.074L15.5 7.877l-5.258-3.03a1 1 0 00-.76-.099z"
        color="#000"
      ></path>
      <defs>
        <marker
          markerHeight="3"
          markerUnits="strokeWidth"
          markerWidth="4"
          orient="auto"
          refX="0"
          refY="5"
          viewBox="0 0 10 10"
        >
          <path d="M0 0l10 5-10 5z"></path>
        </marker>
        <marker
          markerHeight="3"
          markerUnits="strokeWidth"
          markerWidth="4"
          orient="auto"
          refX="10"
          refY="5"
          viewBox="0 0 10 10"
        >
          <path d="M10 0L0 5l10 5z"></path>
        </marker>
      </defs>
      <path
        fill="#8cd5ff"
        fillRule="evenodd"
        stroke="none"
        strokeWidth="1"
        d="M12.957 5.713a3.215 3.215 0 11-6.43.002 3.215 3.215 0 016.43-.002"
      ></path>
      <path
        fill="#fafafa"
        fillRule="evenodd"
        stroke="none"
        strokeWidth="1"
        d="M60.715 33.28a3.215 3.215 0 11-6.43.002 3.215 3.215 0 016.43-.002"
      ></path>
      <path
        fill="#ff8c82"
        fillRule="evenodd"
        stroke="none"
        strokeWidth="1"
        d="M108.472 5.713a3.215 3.215 0 11-6.43.002 3.215 3.215 0 016.43-.002"
      ></path>
      <path
        fill="#d1ff82"
        fillRule="evenodd"
        stroke="none"
        strokeWidth="1"
        d="M60.714 89.284a3.215 3.215 0 11-6.43.002 3.215 3.215 0 016.43-.002"
      ></path>
    </svg>