<svg
      xmlns="http://www.w3.org/2000/svg"
      width="115"
      height="95"
      version="1.1"
    >
      <defs>
        <marker
          markerHeight="3"
          markerUnits="strokeWidth"
          markerWidth="4"
          orient="auto"
          refX="0"
          refY="5"
          viewBox="0 0 10 10"
        >
          <path d="M0 0l10 5-10 5z"></path>
        </marker>
        <marker
          markerHeight="3"
          markerUnits="strokeWidth"
          markerWidth="4"
          orient="auto"
          refX="10"
          refY="5"
          viewBox="0 0 10 10"
        >
          <path d="M10 0L0 5l10 5z"></path>
        </marker>
      </defs>
      <path
        fill="#fafafa"
        strokeLinecap="round"
        strokeLinejoin="round"
        d="M51.053 0a1 1 0 00-.92.608l-3.385 7.927-1.236-2.888a1 1 0 00-.918-.608l-10.047.002H11.592a1 1 0 00-.871 1.49l11.474 20.376a1 1 0 00.004.007l4.696 8.162-2.875 3.868a1 1 0 00.92 1.59l8.533-1.022-5.153 6.914a1 1 0 00.922 1.59l8.533-1.02-5.152 6.913a1 1 0 00.92 1.59l8.535-1.02L40.2 57a1 1 0 00-.066 1.098l5.017 8.717a1 1 0 000 .004l.006.007 11.475 20.368a1 1 0 001.742 0l11.473-20.371 4.69-8.153 4.763.569a1 1 0 00.922-1.59l-5.155-6.914 8.536 1.021a1 1 0 00.92-1.59l-5.15-6.914 8.53 1.022a1 1 0 00.922-1.592l-5.154-6.916 3.117.373a1 1 0 00.986-.494l5.026-8.73a1 1 0 00.006-.008l11.474-20.375a1 1 0 00-.87-1.49H71.072L69.18.607a1 1 0 00-1.84 0l-3.383 7.926-3.38-7.926a1 1 0 00-1.84 0l-3.383 7.924L51.973.608a1 1 0 00-.92-.608zm8.603 3.547l3.383 7.926a1 1 0 001.838 0l3.383-7.926 1.232 2.887a1 1 0 00.918.607h31.287l-10.633 18.88-4.695 8.154-4.773-.57a1 1 0 00-.92 1.591l5.154 6.914-8.535-1.021a1 1 0 00-.922 1.59l5.154 6.914-8.535-1.022a1 1 0 00-.92 1.59l5.153 6.916-3.11-.371a1 1 0 00-.984.494l-5.022 8.73a1 1 0 00-.004.008L57.502 84.664l-10.61-18.826a1 1 0 00-.001-.002 1 1 0 00-.002-.006l-4.694-8.16 2.877-3.865a1 1 0 00-.92-1.59l-8.535 1.022 5.154-6.914a1 1 0 00-.921-1.59l-8.532 1.02 5.15-6.915a1 1 0 00-.92-1.59l-8.536 1.022 1.879-2.526a1 1 0 00.064-1.095l-5.02-8.729L13.304 7.041h21.244l9.387-.002 1.896 4.434a1 1 0 001.84 0l3.383-7.924 3.38 7.924a1 1 0 001.84 0z"
        color="#000"
      ></path>
      <path
        fill="#8cd5ff"
        stroke="none"
        strokeWidth="1"
        d="M8.3 6.04a3.293 3.296 0 106.585.002 3.293 3.296 0 00-6.586-.001"
      ></path>
      <path
        fill="#ff8c82"
        stroke="none"
        strokeWidth="1"
        d="M100.115 6.04a3.293 3.296 0 106.586.002 3.293 3.296 0 00-6.586-.001"
      ></path>
      <path
        fill="#d1ff82"
        stroke="none"
        strokeWidth="1"
        d="M54.207 86.701a3.293 3.296 0 106.586.002 3.293 3.296 0 00-6.586-.002"
      ></path>
    </svg>