<svg
      xmlns="http://www.w3.org/2000/svg"
      width="115"
      height="95"
      version="1.1"
    >
      <defs>
        <marker
          markerHeight="3"
          markerUnits="strokeWidth"
          markerWidth="4"
          orient="auto"
          refX="0"
          refY="5"
          viewBox="0 0 10 10"
        >
          <path d="M0 0l10 5-10 5z"></path>
        </marker>
        <marker
          markerHeight="3"
          markerUnits="strokeWidth"
          markerWidth="4"
          orient="auto"
          refX="10"
          refY="5"
          viewBox="0 0 10 10"
        >
          <path d="M10 0L0 5l10 5z"></path>
        </marker>
      </defs>
      <path
        fill="#fafafa"
        fillRule="evenodd"
        strokeLinecap="round"
        strokeLinejoin="round"
        d="M45.506 0c-2.333 0-3.775 1.314-4.395 2.553-.366.732-.3.98-.357 1.447H11.592a1 1 0 00-.871 1.49l12.203 21.713a1 1 0 00.006.01l2.75 4.764a1 1 0 001.367.365s.691-.383 1.54-.434c.85-.05 1.724.088 2.558 1.531.833 1.444.517 2.27.048 2.981a4.062 4.062 0 01-1.146 1.12l1 1.73s.691-.383 1.54-.434c.85-.051 1.724.09 2.558 1.533.833 1.444.517 2.268.048 2.979-.469.71-1.146 1.119-1.146 1.119a1 1 0 001 1.732s.691-.384 1.54-.435c.85-.051 1.724.09 2.558 1.533.833 1.443.517 2.27.048 2.98a4.038 4.038 0 01-1.146 1.118l1 1.732s.691-.385 1.54-.436c.85-.05 1.724.09 2.558 1.534.833 1.443.518 2.27.048 2.98a4.038 4.038 0 01-1.146 1.117 1 1 0 00-.367 1.367l2.748 4.758L56.63 86.15a1 1 0 001.742 0L71.541 62.71l2.748-4.758a1 1 0 00-.367-1.365s-.677-.409-1.147-1.12c-.469-.71-.784-1.534.05-2.978.833-1.443 1.706-1.584 2.556-1.533.85.051 1.54.434 1.54.434a1 1 0 001-1.73s-.676-.41-1.146-1.12c-.469-.71-.784-1.537.05-2.98.833-1.444 1.706-1.583 2.556-1.532.85.051 1.54.434 1.54.434a1 1 0 001-1.732s-.676-.407-1.146-1.118c-.469-.71-.784-1.537.05-2.98.833-1.443 1.706-1.584 2.556-1.533a4.03 4.03 0 011.54.435 1 1 0 001-1.732s-.676-.407-1.146-1.117c-.469-.71-.784-1.537.05-2.98.833-1.444 1.706-1.585 2.556-1.534.85.051 1.54.436 1.54.436a1 1 0 001.368-.368l2.75-4.761a1 1 0 00.006-.01L104.279 5.49a1 1 0 00-.87-1.49H74.257c-.057-.468.009-.715-.358-1.447C73.281 1.314 71.84 0 69.506 0c-2.037 0-3.276 1.033-4 2.111-.724-1.078-1.963-2.111-4-2.111s-3.276 1.033-4 2.111C56.782 1.033 55.543 0 53.506 0s-3.276 1.033-4 2.111C48.782 1.033 47.543 0 45.506 0zm0 2c1.667 0 2.225.686 2.605 1.447.381.762.395 1.553.395 1.553a1 1 0 002 0s.014-.791.394-1.553C51.281 2.686 51.84 2 53.506 2c1.667 0 2.225.686 2.605 1.447.381.762.395 1.553.395 1.553a1 1 0 002 0s.014-.791.394-1.553C59.281 2.686 59.84 2 61.506 2c1.667 0 2.225.686 2.605 1.447.381.762.395 1.553.395 1.553a1 1 0 002 0s.014-.791.394-1.553C67.281 2.686 67.84 2 69.506 2c1.667 0 2.225.686 2.605 1.447.381.762.395 1.553.395 1.553a1 1 0 001 1h28.193L91.305 24.48l-2.373 4.108c-.434-.184-.615-.365-1.432-.414-1.382-.083-3.242.508-4.408 2.53-1.019 1.763-.744 3.352-.172 4.519-1.296.087-2.81.644-3.828 2.408-1.019 1.764-.744 3.353-.172 4.52-1.296.087-2.81.644-3.828 2.408-1.02 1.765-.745 3.355-.172 4.521-1.296.088-2.81.644-3.828 2.408-1.167 2.021-.75 3.927.013 5.082.452.684.698.75 1.075 1.034l-2.373 4.11a1 1 0 00-.006.01L57.502 83.622l-11.334-20.16a1 1 0 00-.006-.01l-2.373-4.11c.377-.283.623-.35 1.074-1.034.763-1.156 1.18-3.062.014-5.082-1.019-1.765-2.532-2.321-3.828-2.409.572-1.166.847-2.755-.172-4.52-1.019-1.763-2.532-2.32-3.828-2.407.572-1.167.847-2.756-.172-4.52-1.019-1.764-2.532-2.32-3.828-2.408.573-1.166.847-2.756-.172-4.522-1.167-2.02-3.026-2.612-4.408-2.529-.818.05-1 .23-1.434.414l-2.37-4.105L13.302 6h28.203a1 1 0 001-1s.014-.791.394-1.553C43.281 2.686 43.84 2 45.506 2z"
        color="#000"
      ></path>
      <path
        fill="#8cd5ff"
        stroke="none"
        strokeWidth="1"
        d="M8.3 4.999A3.293 3.296 0 1014.884 5 3.293 3.296 0 008.299 5"
      ></path>
      <path
        fill="#ff8c82"
        stroke="none"
        strokeWidth="1"
        d="M100.115 4.999a3.293 3.296 0 106.586.001A3.293 3.296 0 00100.115 5"
      ></path>
      <path
        fill="#d1ff82"
        stroke="none"
        strokeWidth="1"
        d="M54.207 85.66a3.293 3.296 0 106.586.001 3.293 3.296 0 00-6.586-.001"
      ></path>
    </svg>