<svg
      xmlns="http://www.w3.org/2000/svg"
      width="115"
      height="95"
      version="1.1"
    >
      <defs>
        <marker
          markerHeight="3"
          markerUnits="strokeWidth"
          markerWidth="4"
          orient="auto"
          refX="0"
          refY="5"
          viewBox="0 0 10 10"
        >
          <path d="M0 0l10 5-10 5z"></path>
        </marker>
        <marker
          markerHeight="3"
          markerUnits="strokeWidth"
          markerWidth="4"
          orient="auto"
          refX="10"
          refY="5"
          viewBox="0 0 10 10"
        >
          <path d="M10 0L0 5l10 5z"></path>
        </marker>
      </defs>
      <path
        fill="#fafafa"
        strokeLinecap="round"
        strokeLinejoin="round"
        d="M27.16 2.5a1 1 0 00-.918.607L24.34 7.551l-13.014.006a1 1 0 00-.998 1 1 1 0 001 1L25 9.549a1 1 0 00.918-.606l1.244-2.904 3.408 7.957a1 1 0 001.838 0l3.408-7.957 3.41 7.957a1 1 0 001.838 0l3.409-7.957 3.408 7.957a1 1 0 001.84 0l1.902-4.443H56.5v26.433a1 1 0 00.605.918l2.907 1.246-7.953 3.409a1 1 0 000 1.84l7.953 3.41-7.953 3.408a1 1 0 000 1.838l7.953 3.41-7.953 3.408a1 1 0 000 1.84l4.445 1.904-.004 26.774a1 1 0 001 1 1 1 0 001-1l.004-27.434a1 1 0 00-.608-.918l-2.906-1.246 7.955-3.41a1 1 0 000-1.838l-7.955-3.408 7.955-3.41a1 1 0 000-1.838l-7.953-3.41 7.953-3.41a1 1 0 000-1.839L58.5 35.326V9.553h4.877l1.902 4.443a1 1 0 001.84 0l3.408-7.957 3.409 7.957a1 1 0 001.837 0l3.41-7.957 3.409 7.957a1 1 0 001.838 0l3.408-7.957 1.244 2.904A1 1 0 0090 9.55l13.672.008a1 1 0 001-1 1 1 0 00-.998-1L90.66 7.55l-1.902-4.444a1 1 0 00-1.838-.002l-3.408 7.96-3.41-7.96a1 1 0 00-1.838 0l-3.409 7.96-3.41-7.96a1 1 0 00-1.838 0L66.2 11.062l-1.244-2.904a1 1 0 00-.918-.605H50.963a1 1 0 00-.918.605L48.8 11.063l-3.408-7.958a1 1 0 00-1.838 0l-3.41 7.96-3.409-7.96a1 1 0 00-1.838 0l-3.41 7.96-3.408-7.96a1 1 0 00-.92-.605z"
        color="#000"
      ></path>
      <path
        fill="#8cd5ff"
        fillRule="evenodd"
        stroke="none"
        strokeWidth="1"
        d="M14.434 8.557a3.109 3.109 0 11-6.218.004 3.109 3.109 0 016.218-.004"
      ></path>
      <path
        fill="#fafafa"
        fillRule="evenodd"
        stroke="none"
        strokeWidth="1"
        d="M60.608 8.55a3.109 3.109 0 11-6.218.004 3.109 3.109 0 016.218-.004"
      ></path>
      <path
        fill="#ff8c82"
        fillRule="evenodd"
        stroke="none"
        strokeWidth="1"
        d="M106.781 8.557a3.109 3.109 0 11-6.217.004 3.109 3.109 0 016.217-.004"
      ></path>
      <path
        fill="#d1ff82"
        fillRule="evenodd"
        stroke="none"
        strokeWidth="1"
        d="M60.607 89.39a3.109 3.109 0 11-6.217.003 3.109 3.109 0 016.217-.003"
      ></path>
    </svg>