<svg
      xmlns="http://www.w3.org/2000/svg"
      width="115"
      height="95"
      version="1.1"
    >
      <defs>
        <marker
          markerHeight="3"
          markerUnits="strokeWidth"
          markerWidth="4"
          orient="auto"
          refX="0"
          refY="5"
          viewBox="0 0 10 10"
        >
          <path d="M0 0l10 5-10 5z"></path>
        </marker>
        <marker
          markerHeight="3"
          markerUnits="strokeWidth"
          markerWidth="4"
          orient="auto"
          refX="10"
          refY="5"
          viewBox="0 0 10 10"
        >
          <path d="M10 0L0 5l10 5z"></path>
        </marker>
      </defs>
      <path
        fill="#fafafa"
        strokeLinecap="round"
        strokeLinejoin="round"
        d="M22.414 3.025c-2.333 0-3.775 1.315-4.394 2.553-.367.732-.3.98-.358 1.447h-4.748a1 1 0 00-1 1 1 1 0 001 1h5.5a1 1 0 001-1s.012-.79.393-1.552c.38-.762.94-1.448 2.607-1.448 1.667 0 2.225.686 2.606 1.448.38.761.394 1.552.394 1.552a1 1 0 002 0s.012-.79.393-1.552c.38-.762.94-1.448 2.607-1.448 1.667 0 2.225.686 2.606 1.448.38.761.394 1.552.394 1.552a1 1 0 002 0s.012-.79.393-1.552c.38-.762.94-1.448 2.607-1.448 1.667 0 2.225.686 2.606 1.448.38.761.394 1.552.394 1.552a1 1 0 002 0s.012-.79.393-1.552c.38-.762.94-1.448 2.607-1.448 1.667 0 2.225.686 2.606 1.448.38.761.394 1.552.394 1.552a1 1 0 001 1H56.5l.002 17.92v5.5a1 1 0 001 1s.791.014 1.553.395c.761.38 1.447.939 1.447 2.605 0 1.667-.686 2.225-1.447 2.606-.762.38-1.553.394-1.553.394a1 1 0 000 2s.791.014 1.553.395c.761.38 1.447.939 1.447 2.605 0 1.667-.686 2.225-1.447 2.606a4.045 4.045 0 01-1.553.394 1 1 0 000 2s.791.014 1.553.395c.761.38 1.447.939 1.447 2.605 0 1.667-.686 2.225-1.447 2.606a4.045 4.045 0 01-1.553.394 1 1 0 000 2s.791.014 1.553.395c.761.38 1.447.939 1.447 2.605 0 1.667-.686 2.225-1.447 2.606a4.045 4.045 0 01-1.553.394 1 1 0 00-1 1v5.5l-.002 18.92a1 1 0 001 1 1 1 0 001-1l.002-18.92v-4.748c.468-.057.715.01 1.447-.357 1.239-.62 2.553-2.061 2.553-4.395 0-2.037-1.033-3.276-2.111-4 1.078-.724 2.111-1.962 2.111-4 0-2.037-1.033-3.276-2.111-4 1.078-.724 2.111-1.962 2.111-4 0-2.037-1.033-3.276-2.111-4 1.078-.724 2.111-1.962 2.111-4 0-2.333-1.314-3.775-2.553-4.394-.732-.366-.98-.3-1.447-.358v-4.748L58.5 9.025l6.086.002a1 1 0 001-1s.014-.79.394-1.552c.381-.762.94-1.448 2.606-1.448 1.667 0 2.227.686 2.607 1.448.381.761.393 1.552.393 1.552a1 1 0 002 0s.014-.79.394-1.552c.381-.762.94-1.448 2.606-1.448 1.667 0 2.227.686 2.607 1.448.381.761.393 1.552.393 1.552a1 1 0 002 0s.014-.79.394-1.552c.381-.762.94-1.448 2.606-1.448 1.667 0 2.227.686 2.607 1.448.381.761.393 1.552.393 1.552a1 1 0 002 0s.014-.79.394-1.552c.381-.762.94-1.448 2.606-1.448 1.667 0 2.227.686 2.607 1.448.381.761.393 1.552.393 1.552a1 1 0 001 1h5.5a1 1 0 001-1 1 1 0 00-1-1h-4.748c-.057-.467.009-.715-.358-1.447-.619-1.238-2.06-2.553-4.394-2.553-2.038 0-3.276 1.033-4 2.112-.724-1.079-1.963-2.112-4-2.112-2.038 0-3.276 1.033-4 2.112-.724-1.079-1.963-2.112-4-2.112-2.038 0-3.276 1.033-4 2.112-.724-1.079-1.963-2.112-4-2.112-2.333 0-3.773 1.315-4.393 2.553-.366.733-.302.98-.359 1.447L57.5 7.025h-6.334c-.057-.467.007-.714-.36-1.447-.619-1.238-2.059-2.553-4.392-2.553-2.037 0-3.276 1.033-4 2.112-.724-1.08-1.962-2.112-4-2.112-2.037 0-3.276 1.033-4 2.112-.724-1.08-1.962-2.112-4-2.112-2.037 0-3.276 1.033-4 2.112-.724-1.08-1.962-2.112-4-2.112z"
        color="#000"
      ></path>
      <path
        fill="none"
        stroke="#fafafa"
        strokeDasharray="none"
        strokeLinecap="round"
        strokeLinejoin="round"
        strokeMiterlimit="4"
        strokeWidth="2"
        d="M50.964 8.026h13.072"
      ></path>
      <path
        fill="none"
        stroke="#fafafa"
        strokeDasharray="none"
        strokeLinecap="round"
        strokeLinejoin="round"
        strokeMiterlimit="4"
        strokeWidth="2"
        d="M18.413 8.026l-7.086.004"
      ></path>
      <path
        fill="#fafafa"
        fillRule="evenodd"
        stroke="none"
        strokeWidth="1"
        d="M60.608 8.024a3.109 3.109 0 11-6.218.004 3.109 3.109 0 016.218-.004"
      ></path>
      <path
        fill="#d1ff82"
        fillRule="evenodd"
        stroke="none"
        strokeWidth="1"
        d="M60.607 88.864a3.109 3.109 0 11-6.217.003 3.109 3.109 0 016.217-.003"
      ></path>
      <path
        fill="#ff8c82"
        fillRule="evenodd"
        stroke="none"
        strokeWidth="1"
        d="M106.781 8.031a3.109 3.109 0 11-6.217.004 3.109 3.109 0 016.217-.004"
      ></path>
      <path
        fill="#8cd5ff"
        fillRule="evenodd"
        stroke="none"
        strokeWidth="1"
        d="M14.434 8.031a3.109 3.109 0 11-6.218.004 3.109 3.109 0 016.218-.004"
      ></path>
    </svg>