<svg
      xmlns="http://www.w3.org/2000/svg"
      width="115"
      height="95"
      version="1.1"
    >
      <defs>
        <marker
          markerHeight="3"
          markerUnits="strokeWidth"
          markerWidth="4"
          orient="auto"
          refX="0"
          refY="5"
          viewBox="0 0 10 10"
        >
          <path d="M0 0l10 5-10 5z"></path>
        </marker>
        <marker
          markerHeight="3"
          markerUnits="strokeWidth"
          markerWidth="4"
          orient="auto"
          refX="10"
          refY="5"
          viewBox="0 0 10 10"
        >
          <path d="M10 0L0 5l10 5z"></path>
        </marker>
      </defs>
      <path
        fill="#fafafa"
        fillRule="evenodd"
        stroke="none"
        strokeWidth="1"
        d="M60.715 33.28a3.215 3.215 0 11-6.43.002 3.215 3.215 0 016.43-.002"
      ></path>
      <path
        
        fill="#fafafa"
        fillRule="evenodd"
        d="M10.242 4.848l-1 1.732 12.25 7.065 7.733 4.47-5 8.658 2.597 1.5 11-19.05-2.597-1.5-5 8.66-7.733-4.47-12.25-7.065z"
        color="#000"
      ></path>
      <path
        
        fill="#fafafa"
        fillRule="evenodd"
        d="M40.42 10.723l-11 19.05 2.6 1.5 4.998-8.658 7.73 4.46L56.5 33.858v13.998l.002 8.926h-10v3h22v-3h-10l-.002-8.926V33.86l11.752-6.785 7.725-4.459 5 8.658 2.597-1.5-11-19.05-2.597 1.5 5 8.66-7.725 4.459L57.5 32.127l-11.752-6.785-7.73-4.46 5-8.66-2.598-1.5z"
        color="#000"
      ></path>
      <path
        
        fill="#fafafa"
        fillRule="evenodd"
        d="M104.758 4.848l-12.25 7.064-7.737 4.469-5-8.658-2.597 1.5 10.998 19.05 2.6-1.5-5-8.658 7.736-4.47 12.25-7.065-1-1.732z"
        color="#000"
      ></path>
      <path
        fill="#fafafa"
        fillRule="evenodd"
        d="M46.502 62.783v3h10l.002 8.926-.004 14.576h2l.004-14.576-.002-8.926h10v-3h-22z"
        color="#000"
      ></path>
      <path
        fill="#8cd5ff"
        fillRule="evenodd"
        stroke="none"
        strokeWidth="1"
        d="M12.957 5.713a3.215 3.215 0 11-6.43.002 3.215 3.215 0 016.43-.002"
      ></path>
      <path
        fill="#ff8c82"
        fillRule="evenodd"
        stroke="none"
        strokeWidth="1"
        d="M108.472 5.713a3.215 3.215 0 11-6.43.002 3.215 3.215 0 016.43-.002"
      ></path>
      <path
        fill="#d1ff82"
        fillRule="evenodd"
        stroke="none"
        strokeWidth="1"
        d="M60.714 89.284a3.215 3.215 0 11-6.43.002 3.215 3.215 0 016.43-.002"
      ></path>
    </svg>